<?xml version="1.0" standalone="no"?>
<!DOCTYPE svg PUBLIC "-//W3C//DTD SVG 20010904//EN"
 "http://www.w3.org/TR/2001/REC-SVG-20010904/DTD/svg10.dtd">
<svg version="1.0" xmlns="http://www.w3.org/2000/svg"
 width="542.000000pt" height="542.000000pt" viewBox="0 0 542.000000 542.000000"
 preserveAspectRatio="xMidYMid meet">
<metadata>
Created by potrace 1.11, written by Peter Selinger 2001-2013
</metadata>
<g transform="translate(0.000000,542.000000) scale(0.100000,-0.100000)"
fill="#000000" stroke="none">
<path d="M2797 4835 c-1 -1 -47 -5 -102 -9 -151 -10 -210 -18 -350 -51 -679
-161 -1230 -633 -1498 -1286 -48 -117 -106 -320 -123 -433 -3 -21 -7 -48 -9
-59 -26 -131 -26 -398 -1 -607 17 -148 67 -337 131 -495 112 -278 258 -498
475 -716 258 -259 543 -433 885 -538 110 -33 115 -35 260 -61 233 -43 510 -43
742 0 32 5 72 13 88 16 17 3 68 16 115 30 47 13 92 26 100 28 8 2 58 21 110
41 550 217 990 656 1211 1210 30 76 37 99 74 227 51 181 73 368 70 593 -3 160
-6 194 -30 335 -50 287 -149 540 -309 790 -170 265 -425 513 -695 676 -239
144 -535 250 -781 280 -25 3 -51 7 -59 10 -8 3 -64 7 -125 10 -61 3 -126 7
-144 8 -18 1 -33 2 -35 1z"/>
</g>
</svg>
